HIERARCHY
ROOT Hips
{
	OFFSET	0.00	0.00	0.00
	CHANNELS 6 Xposition Yposition Zposition Zrotation Xrotation Yrotation
	JOINT LeftUpLeg
	{
		OFFSET	 0.126116	-0.014019	-0.065224
		CHANNELS 3 Zrotation Xrotation Yrotation
		JOINT LeftLeg
		{
			OFFSET	 0.000000	 0.000000	 0.569914
			CHANNELS 3 Zrotation Xrotation Yrotation
			JOINT LeftFoot
			{
				OFFSET	 0.000000	 0.000000	 0.544423
				CHANNELS 3 Zrotation Xrotation Yrotation
				JOINT LeftToeBase
				{
					OFFSET	 0.000000	 0.000000	 0.207117
					CHANNELS 3 Zrotation Xrotation Yrotation
					End Site
					{
						OFFSET	 0.000000	 0.000000	 0.207117
					}
				}
			}
		}
	}
	JOINT RightUpLeg
	{
		OFFSET	-0.124023	-0.008373	-0.065224
		CHANNELS 3 Zrotation Xrotation Yrotation
		JOINT RightLeg
		{
			OFFSET	 0.000000	 0.000000	 0.570047
			CHANNELS 3 Zrotation Xrotation Yrotation
			JOINT RightFoot
			{
				OFFSET	 0.000000	 0.000000	 0.544354
				CHANNELS 3 Zrotation Xrotation Yrotation
				JOINT RightToeBase
				{
					OFFSET	 0.000000	 0.000000	 0.207540
					CHANNELS 3 Zrotation Xrotation Yrotation
					End Site
					{
						OFFSET	 0.000000	 0.000000	 0.207540
					}
				}
			}
		}
	}
	JOINT Spine
	{
		OFFSET	 0.000184	-0.007763	 0.117403
		CHANNELS 3 Zrotation Xrotation Yrotation
		JOINT Spine1
		{
			OFFSET	 0.000000	 0.000000	 0.137269
			CHANNELS 3 Zrotation Xrotation Yrotation
			JOINT Spine2
			{
				OFFSET	 0.000000	 0.000000	 0.156879
				CHANNELS 3 Zrotation Xrotation Yrotation
				JOINT LeftShoulder
				{
					OFFSET	 0.080501	-0.002496	 0.160144
					CHANNELS 3 Zrotation Xrotation Yrotation
					JOINT LeftArm
					{
						OFFSET	 0.000000	 0.000000	 0.164363
						CHANNELS 3 Zrotation Xrotation Yrotation
						JOINT LeftForeArm
						{
							OFFSET	 0.000000	 0.000000	 0.364576
							CHANNELS 3 Zrotation Xrotation Yrotation
							JOINT LeftHand
							{
								OFFSET	 0.000000	 0.000000	 0.360812
								CHANNELS 3 Zrotation Xrotation Yrotation
								JOINT LeftHandIndex1
								{
									OFFSET	 0.000000	 0.000000	 0.086006
									CHANNELS 3 Zrotation Xrotation Yrotation
									JOINT LeftHandIndex2
									{
										OFFSET	 0.000000	 0.000000	 0.047236
										CHANNELS 3 Zrotation Xrotation Yrotation
										JOINT LeftHandIndex3
										{
											OFFSET	-0.004284	-0.000551	 0.038166
											CHANNELS 3 Zrotation Xrotation Yrotation
											End Site
											{
												OFFSET	-0.004284	-0.000551	 0.038166
											}
										}
									}
								}
							}
						}
					}
				}
				JOINT Neck
				{
					OFFSET	 0.000000	 0.000000	 0.176489
					CHANNELS 3 Zrotation Xrotation Yrotation
					JOINT Head
					{
						OFFSET	 0.000000	-0.001747	 0.077940
						CHANNELS 3 Zrotation Xrotation Yrotation
						End Site
						{
							OFFSET	 0.000000	-0.001747	 0.077940
						}
					}
				}
				JOINT RightShoulder
				{
					OFFSET	-0.080363	 0.000306	 0.159706
					CHANNELS 3 Zrotation Xrotation Yrotation
					JOINT RightArm
					{
						OFFSET	 0.000000	 0.000000	 0.164196
						CHANNELS 3 Zrotation Xrotation Yrotation
						JOINT RightForeArm
						{
							OFFSET	 0.000000	 0.000000	 0.365611
							CHANNELS 3 Zrotation Xrotation Yrotation
							JOINT RightHand
							{
								OFFSET	 0.000000	 0.000000	 0.360648
								CHANNELS 3 Zrotation Xrotation Yrotation
								JOINT RightHandIndex1
								{
									OFFSET	 0.000000	 0.000000	 0.069977
									CHANNELS 3 Zrotation Xrotation Yrotation
									JOINT RightHandIndex2
									{
										OFFSET	 0.000000	 0.000000	 0.052305
										CHANNELS 3 Zrotation Xrotation Yrotation
										JOINT RightHandIndex3
										{
											OFFSET	 0.009002	-0.000782	 0.042196
											CHANNELS 3 Zrotation Xrotation Yrotation
											End Site
											{
												OFFSET	 0.009002	-0.000782	 0.042196
											}
										}
									}
								}
							}
						}
					}
				}
			}
		}
	}
}
MOTION
Frames:    12
Frame Time: 0.03333334
-0.021938	 0.285573	 1.018622	 1.046134	 32.764930	-7.183407	 71.715030	-73.868480	-121.086500	 6.341393	-70.620580	 6.378294	 72.007130	 69.159280	-88.008720	-2.385832	 28.452790	-0.000001	 36.204460	-86.295980	-138.040800	-16.940650	-73.962560	-11.347490	-35.332340	 72.742390	 64.194380	 2.384659	 28.388700	-0.000001	-10.526060	 14.411060	 2.161628	-2.826037	 13.787290	 4.078710	 2.105091	 4.975896	 1.246548	-99.192260	 68.205470	 156.694200	-0.041160	-11.379070	-45.532160	 6.156338	-1.580975	-6.588293	-40.482220	-15.138900	-23.188490	-2.027600	 6.559038	 9.033609	-5.188889	 0.308190	 3.541030	-5.234859	 0.342567	 0.430617	 0.466547	 18.175680	-6.289128	 4.246991	-25.820860	 1.405692	 97.496600	 64.636790	-159.234000	-7.367517	 6.125673	 52.089350	-18.745100	-8.425647	 36.361930	 24.975920	-15.252040	 18.620860	 1.803333	 3.979147	-15.098590	 4.898592	 3.004813	-9.310344	 5.224449	 0.395017	 2.014677
-0.019998	 0.283788	 1.028921	 0.942487	 32.075550	-6.887761	 67.185630	-72.767850	-125.911400	 5.621330	-69.198130	 5.646924	 71.532170	 69.136230	-87.049250	-2.385832	 28.452790	-0.000001	 16.169890	-85.027840	-157.498800	-16.131920	-72.496090	-10.488530	-35.107730	 72.672040	 63.646570	 2.384659	 28.388700	-0.000001	-14.403960	 14.112840	 2.048330	-2.784005	 13.441440	 3.981682	 2.275853	 4.634399	 1.056479	-99.070070	 68.190280	 157.091900	 0.386641	-10.028260	-45.729940	 8.198930	-2.039241	-7.325109	-40.884450	-15.247760	-23.495120	-2.027600	 6.559038	 9.033609	-5.188889	 0.308190	 3.541030	-5.234859	 0.342567	 0.430617	 0.110614	 16.248840	-5.374307	 4.075865	-24.019050	 0.832052	 97.397000	 64.575090	-159.556400	-8.178275	 6.420218	 50.883230	-19.562010	-9.940560	 38.710710	 25.234950	-15.290650	 19.371880	 1.803333	 3.979147	-15.098590	 4.898592	 3.004813	-9.310344	 5.224449	 0.395017	 2.014677
-0.018348	 0.281847	 1.038109	 0.941888	 31.463820	-6.653540	 63.492500	-71.723730	-129.797300	 5.192414	-67.892110	 5.198922	 70.752260	 69.117650	-85.921170	-2.385832	 28.452790	-0.000001	 5.451125	-83.604450	-167.615200	-15.528430	-71.179540	-9.838197	-34.803140	 72.616670	 63.025780	 2.384659	 28.388700	-0.000001	-17.690900	 13.804100	 1.947420	-2.750182	 13.309240	 3.864533	 2.397576	 4.203672	 0.894889	-98.835010	 68.415210	 157.478800	 0.748104	-8.623896	-46.093280	 9.977649	-2.469177	-7.936506	-41.271860	-15.380930	-23.920520	-2.027600	 6.559038	 9.033609	-5.188889	 0.308190	 3.541030	-5.234859	 0.342567	 0.430617	-0.165175	 14.117150	-4.803889	 3.991484	-21.986180	 0.469955	 97.273890	 64.383660	-160.055800	-8.973315	 6.433446	 50.042300	-20.185980	-11.347410	 40.788680	 25.187810	-15.146800	 19.985920	 1.803333	 3.979147	-15.098590	 4.898592	 3.004813	-9.310344	 5.224449	 0.395017	 2.014677
-0.016397	 0.279318	 1.048695	 0.975141	 30.781890	-6.389820	 59.733510	-70.445050	-133.759200	 4.775323	-66.357510	 4.758183	 69.794530	 69.096290	-84.545810	-2.385832	 28.452790	-0.000001	-2.072744	-81.802500	-174.434700	-14.921440	-69.630170	-9.174612	-34.340760	 72.551350	 62.215510	 2.384659	 28.388700	-0.000001	-21.249550	 13.427820	 1.818296	-2.717924	 13.120440	 3.739035	 2.522128	 3.726568	 0.709990	-98.552580	 68.705560	 157.923500	 1.159027	-6.988864	-46.499360	 11.923810	-2.978891	-8.578883	-41.703110	-15.546140	-24.432130	-2.027600	 6.559038	 9.033609	-5.188889	 0.308190	 3.541030	-5.234859	 0.342567	 0.430617	-0.447985	 11.639370	-4.209320	 3.924047	-19.623400	 0.089000	 97.125980	 64.147380	-160.649700	-9.912042	 6.427362	 49.085550	-20.727950	-12.988980	 43.191560	 25.098620	-14.946490	 20.661800	 1.803333	 3.979147	-15.098590	 4.898592	 3.004813	-9.310344	 5.224449	 0.395017	 2.014677
-0.014672	 0.276813	 1.058176	 0.985458	 30.127140	-6.126339	 56.673080	-69.204060	-137.052900	 4.450031	-64.973820	 4.411574	 68.968370	 69.109950	-83.323880	-2.385832	 28.452790	-0.000001	-6.718875	-80.049480	-178.447800	-14.478110	-68.208680	-8.675523	-33.915140	 72.515200	 61.465890	 2.384659	 28.388700	-0.000001	-24.298370	 13.074210	 1.705996	-2.713980	 13.000370	 3.655689	 2.629651	 3.206348	 0.533366	-98.209640	 69.141020	 158.346300	 1.580525	-5.356622	-46.877470	 13.631750	-3.453464	-9.116180	-42.104750	-15.677730	-25.023160	-2.027600	 6.559038	 9.033609	-5.188889	 0.308190	 3.541030	-5.234859	 0.342567	 0.430617	-0.670064	 9.126207	-3.647728	 3.843903	-17.251340	-0.327944	 96.972940	 64.091640	-161.091800	-10.776860	 6.708312	 48.217250	-21.208710	-14.576380	 45.310270	 24.980930	-14.760310	 21.156050	 1.803333	 3.979147	-15.098590	 4.898592	 3.004813	-9.310344	 5.224449	 0.395017	 2.014677
-0.013104	 0.274145	 1.067363	 0.965446	 29.426030	-5.846464	 53.915580	-67.900950	-140.100100	 4.172373	-63.627620	 4.113061	 68.176990	 69.173680	-82.134100	-2.385833	 28.452760	 0.000004	-10.146060	-78.222600	 178.744400	-14.133550	-66.802900	-8.271190	-33.539190	 72.501360	 60.753860	 2.384659	 28.388700	-0.000001	-27.138140	 12.720530	 1.613214	-2.730089	 12.944190	 3.609856	 2.731702	 2.590182	 0.345853	-97.772220	 69.763290	 158.786500	 2.051738	-3.575646	-47.291340	 15.276190	-3.931275	-9.608029	-42.515960	-15.788040	-25.748830	-2.027600	 6.559038	 9.033609	-5.188889	 0.308190	 3.541030	-5.234859	 0.342567	 0.430617	-0.851636	 6.336092	-3.060404	 3.748817	-14.640480	-0.817928	 96.803580	 64.209470	-161.430000	-11.635120	 7.294416	 47.378420	-21.703670	-16.250630	 47.321370	 24.817180	-14.579180	 21.526420	 1.803333	 3.979147	-15.098590	 4.898592	 3.004813	-9.310344	 5.224449	 0.395017	 2.014677
-0.011566	 0.270837	 1.077704	 0.932293	 28.595280	-5.547246	 51.054220	-66.335470	-143.308700	 3.904055	-62.083140	 3.819385	 67.183750	 69.301480	-80.685730	-2.385833	 28.452760	 0.000004	-13.029340	-76.077400	 176.566100	-13.805690	-65.192640	-7.870861	-33.172680	 72.468360	 60.006240	 2.384659	 28.388700	-0.000001	-30.114950	 12.329420	 1.538605	-2.728350	 12.809270	 3.588686	 2.839766	 1.911139	 0.122005	-97.241230	 70.539650	 159.287800	 2.579382	-1.481173	-47.821090	 17.081220	-4.483168	-10.124440	-42.980790	-15.931970	-26.587890	-2.027600	 6.559038	 9.033609	-5.188889	 0.308190	 3.541030	-5.234859	 0.342567	 0.430617	-1.023731	 3.116748	-2.438431	 3.682071	-11.629460	-1.339128	 96.588660	 64.404300	-161.828100	-12.593930	 8.022016	 46.503330	-22.125200	-18.164630	 49.564440	 24.642910	-14.405730	 21.953320	 1.803333	 3.979147	-15.098590	 4.898592	 3.004813	-9.310344	 5.224449	 0.395017	 2.014677
-0.010513	 0.268077	 1.086255	 0.871987	 27.827390	-5.247848	 48.818450	-64.975980	-145.907200	 3.835196	-60.789340	 3.712672	 66.238110	 69.447210	-79.433640	-2.385833	 28.452760	 0.000004	-15.189560	-74.177940	 174.998700	-13.671680	-63.805890	-7.660853	-32.995640	 72.467760	 59.521100	 2.384659	 28.388700	-0.000001	-32.427790	 12.018530	 1.501241	-2.692536	 12.909510	 3.503329	 2.942497	 1.167226	-0.002865	-96.449710	 71.852750	 159.682900	 3.055277	 0.827812	-48.695410	 18.609320	-4.960146	-10.533380	-43.484410	-16.120590	-27.302120	-2.027600	 6.559038	 9.033609	-5.188889	 0.308190	 3.541030	-5.234859	 0.342567	 0.430617	-1.152317	 0.124064	-2.309548	 3.728543	-8.798431	-1.485076	 96.167960	 65.208850	-162.261800	-13.367770	 9.315358	 46.337100	-22.523460	-19.846110	 51.272450	 24.683780	-14.638470	 22.392340	 1.803333	 3.979147	-15.098590	 4.898592	 3.004813	-9.310344	 5.224449	 0.395017	 2.014677
-0.009623	 0.264955	 1.094935	 0.813139	 27.046860	-4.962430	 46.748700	-63.544250	-148.349600	 3.773779	-59.443340	 3.610062	 65.130970	 69.626950	-78.010230	-2.385833	 28.452760	 0.000004	-16.964560	-72.222150	 173.827100	-13.552640	-62.369370	-7.459146	-32.822760	 72.436850	 59.048920	 2.384659	 28.388700	-0.000001	-34.530850	 11.689910	 1.484233	-2.631741	 12.980140	 3.430371	 3.038137	 0.417347	-0.134626	-95.602660	 73.210580	 160.054500	 3.538931	 3.210517	-49.652010	 20.107930	-5.443672	-10.913380	-43.985930	-16.328890	-28.047210	-2.027600	 6.559038	 9.033609	-5.188889	 0.308190	 3.541030	-5.234859	 0.342567	 0.430617	-1.277913	-2.954690	-2.186746	 3.784737	-5.889416	-1.637722	 95.736300	 66.039850	-162.709700	-14.142830	 10.625120	 46.155300	-22.791740	-21.562030	 53.060260	 24.709360	-14.891980	 22.844130	 1.803333	 3.979147	-15.098590	 4.898592	 3.004813	-9.310344	 5.224449	 0.395017	 2.014677
-0.008836	 0.261128	 1.104202	 0.789374	 26.135690	-4.646931	 44.597900	-61.924460	-150.912300	 3.784935	-57.995110	 3.564664	 63.724570	 69.849220	-76.287090	-2.385833	 28.452750	 0.000004	-18.610900	-70.004910	 172.875100	-13.012230	-60.849360	-6.879897	-32.992040	 72.480540	 58.651510	 2.384659	 28.388700	-0.000001	-36.551930	 11.325230	 1.471507	-2.564524	 13.169340	 3.304168	 3.138351	-0.518955	-0.232507	-94.615700	 74.707470	 160.467900	 4.233864	 5.689244	-50.805220	 21.708130	-5.966373	-11.292260	-44.353440	-16.539250	-28.861900	-2.027600	 6.559038	 9.033609	-5.188889	 0.308190	 3.541030	-5.234859	 0.342567	 0.430617	-1.412287	-6.621174	-2.256023	 3.867150	-2.449645	-1.714249	 95.239480	 67.014890	-163.213600	-15.064110	 12.050610	 46.094160	-22.948910	-23.383430	 54.962570	 24.730350	-15.219230	 23.232920	 1.803333	 3.979147	-15.098590	 4.898592	 3.004813	-9.310344	 5.224449	 0.395017	 2.014677
-0.008290	 0.257518	 1.111908	 0.798348	 25.291020	-4.363345	 42.838730	-60.480880	-153.044800	 3.842374	-56.796930	 3.565552	 62.439400	 70.066390	-74.736140	-2.385833	 28.452750	 0.000004	-19.826340	-68.020960	 172.287200	-12.361580	-59.591600	-6.231183	-33.331710	 72.607890	 58.351260	 2.384659	 28.388700	-0.000001	-38.051420	 11.023140	 1.457412	-2.511099	 13.384910	 3.174879	 3.221591	-1.395078	-0.293727	-93.698520	 76.022130	 160.809600	 4.941004	 7.759110	-51.875630	 23.051780	-6.409924	-11.590480	-44.566680	-16.717420	-29.571320	-2.027600	 6.559038	 9.033609	-5.188889	 0.308190	 3.541030	-5.234859	 0.342567	 0.430617	-1.540167	-9.988381	-2.437394	 3.945216	 0.696011	-1.732972	 94.792090	 67.904490	-163.660700	-15.931200	 13.292630	 46.221480	-23.011100	-24.892020	 56.499140	 24.739580	-15.536620	 23.511630	 1.803333	 3.979147	-15.098590	 4.898592	 3.004813	-9.310344	 5.224449	 0.395017	 2.014677
-0.007774	 0.253570	 1.119402	 0.865471	 24.426130	-4.073673	 41.105370	-59.027110	-155.143600	 3.839396	-55.640400	 3.570813	 61.247240	 70.294170	-73.238910	-2.385833	 28.452750	 0.000004	-20.897480	-65.990720	 171.887600	-11.730590	-58.365980	-5.612767	-33.576400	 72.799450	 57.941810	 2.384659	 28.388700	-0.000001	-39.301090	 10.708220	 1.401917	-2.472866	 13.516090	 3.049530	 3.298858	-2.260815	-0.375976	-92.945130	 77.031720	 161.211200	 5.658134	 9.611412	-52.812080	 24.357290	-6.844945	-11.864670	-44.656590	-16.868090	-30.287240	-2.027600	 6.559038	 9.033609	-5.188889	 0.308190	 3.541030	-5.234859	 0.342567	 0.430617	-1.661859	-12.994860	-2.498623	 4.022665	 3.497137	-1.816566	 94.367900	 68.729430	-164.113400	-16.852640	 14.549670	 46.437940	-23.057700	-26.336920	 57.877500	 24.704050	-15.838770	 23.767430	 1.803333	 3.979147	-15.098590	 4.898592	 3.004813	-9.310344	 5.224449	 0.395017	 2.014677
